<svg id="Layer_1" enable-background="new 0 0 512 512" height="512" viewBox="0 0 512 512" width="512" xmlns="http://www.w3.org/2000/svg"><path d="m503.044 143.289-237.871-104.719c-3.805-1.676-8.137-1.696-11.957-.057l-244.129 104.719c-5.501 2.359-9.073 7.764-9.087 13.75s3.532 11.407 9.022 13.792l115.108 50.017v176.308c0 8.284 6.716 15 15 15h236.151c8.284 0 15-6.716 15-15v-177.356l44.127-19.174v259.133c0 8.284 6.716 15 15 15s15-6.716 15-15v-272.169l38.568-16.759c5.467-2.375 9.008-7.761 9.022-13.721.017-5.96-3.499-11.363-8.954-13.764zm-243.993-74.635 200.517 88.274-15.952 6.931c-.037.016-.074.032-.111.048l-187.505 81.474-203.156-88.275zm-104.92 313.445v-30.275h206.151v30.275zm206.151-60.275h-206.151v-87.997l95.892 41.667c1.906.829 3.941 1.243 5.978 1.243 2.036 0 4.071-.414 5.978-1.243l98.305-42.715v89.045z"/></svg>