<svg height="512" viewBox="0 0 512 512" width="512" xmlns="http://www.w3.org/2000/svg"><path d="m362.078 289.37a5.917 5.917 0 0 1 -3.7-1.3l-38.378-30.7-38.378 30.7a5.917 5.917 0 0 1 -3.7 1.3 5.922 5.922 0 0 1 -5.922-5.922v-58.078h96v58.078a5.922 5.922 0 0 1 -5.922 5.922z" fill="#d7322d"/><path d="m440 129.37c0 12.082-17.522 21.247-21.062 32.149-3.669 11.3 4.993 28.989-1.852 38.394-6.913 9.5-26.459 6.693-35.958 13.606-9.4 6.845-12.739 26.338-24.038 30.007-10.9 3.54-25.008-10.156-37.09-10.156s-26.188 13.7-37.09 10.156c-11.3-3.668-14.632-23.162-24.038-30.007-9.5-6.913-29.045-4.107-35.958-13.606-6.844-9.405 1.817-27.095-1.852-38.394-3.54-10.902-21.062-20.067-21.062-32.149s17.522-21.246 21.062-32.148c3.669-11.3-4.993-28.989 1.852-38.394 6.913-9.5 26.459-6.694 35.958-13.607 9.4-6.844 12.739-26.338 24.038-30.007 10.9-3.54 25.008 10.156 37.09 10.156s26.188-13.7 37.09-10.156c11.3 3.669 14.632 23.162 24.038 30.007 9.5 6.913 29.045 4.108 35.958 13.607 6.844 9.405-1.817 27.094 1.852 38.393 3.54 10.902 21.062 20.067 21.062 32.149z" fill="#f5871e"/><circle cx="320" cy="129.37" fill="#fabe19" r="88"/><path d="m224 289.37h160a16 16 0 0 1 16 16v192a0 0 0 0 1 0 0h-192a0 0 0 0 1 0 0v-192a16 16 0 0 1 16-16z" fill="#4b55a5"/><path d="m224 289.37h64a16 16 0 0 1 16 16v192a0 0 0 0 1 0 0h-96a0 0 0 0 1 0 0v-192a16 16 0 0 1 16-16z" fill="#6478b9"/><path d="m128 350.7h160a16 16 0 0 1 16 16v130.67a0 0 0 0 1 0 0h-192a0 0 0 0 1 0 0v-130.67a16 16 0 0 1 16-16z" fill="#d7322d"/><path d="m128 350.7h64a16 16 0 0 1 16 16v130.67a0 0 0 0 1 0 0h-96a0 0 0 0 1 0 0v-130.67a16 16 0 0 1 16-16z" fill="#f04b37"/><path d="m32 417.37h160a16 16 0 0 1 16 16v64a0 0 0 0 1 0 0h-192a0 0 0 0 1 0 0v-64a16 16 0 0 1 16-16z" fill="#f5871e"/><path d="m32 417.37h64a16 16 0 0 1 16 16v64a0 0 0 0 1 0 0h-96a0 0 0 0 1 0 0v-64a16 16 0 0 1 16-16z" fill="#fabe19"/><path d="m274.667 93.37h-16a4 4 0 0 0 -4 4v64a4 4 0 0 0 8 0v-28h12a20 20 0 0 0 0-40zm0 32h-12v-24h12a12 12 0 0 1 0 24z" fill="#f04b37"/><path d="m322.667 125.37a19.869 19.869 0 0 0 -12 4.038v-32.038a4 4 0 0 0 -8 0v64a4 4 0 0 0 8 0v-16a12 12 0 0 1 24 0v16a4 4 0 0 0 8 0v-16a20.023 20.023 0 0 0 -20-20z" fill="#f04b37"/><path d="m370.667 93.37h-16a4 4 0 0 0 -4 4v64a4 4 0 0 0 4 4h16a20.023 20.023 0 0 0 20-20v-32a20.023 20.023 0 0 0 -20-20zm12 52a12.014 12.014 0 0 1 -12 12h-12v-56h12a12.015 12.015 0 0 1 12 12z" fill="#f04b37"/><g fill="#fabe19"><path d="m176 137.37h-24a8 8 0 0 1 0-16h24a8 8 0 0 1 0 16z"/><path d="m488 137.37h-24a8 8 0 0 1 0-16h24a8 8 0 0 1 0 16z"/><path d="m174.515 221.372a8 8 0 0 1 -4.007-14.93l20.784-12a8 8 0 1 1 8 13.856l-20.784 12a7.958 7.958 0 0 1 -3.993 1.074z"/><path d="m444.715 65.372a8 8 0 0 1 -4.007-14.93l20.784-12a8 8 0 1 1 8 13.856l-20.784 12a7.961 7.961 0 0 1 -3.993 1.074z"/><path d="m465.485 221.372a7.958 7.958 0 0 1 -3.993-1.074l-20.784-12a8 8 0 1 1 8-13.856l20.784 12a8 8 0 0 1 -4.007 14.93z"/><path d="m195.285 65.372a7.961 7.961 0 0 1 -3.993-1.074l-20.784-12a8 8 0 0 1 8-13.856l20.784 12a8 8 0 0 1 -4.007 14.93z"/></g></svg>